<?xml version="1.0" encoding="UTF-8"?>
<svg xmlns="http://www.w3.org/2000/svg" viewBox="0 0 452 205" width="452" height="205" role="img" aria-label="KM-09 · Three people warned">
  <defs>
    <linearGradient id="bgKM09Threep" x1="0" y1="0" x2="0" y2="1"><stop offset="0%" stop-color="#f8fafc"/><stop offset="100%" stop-color="#eef2ff"/></linearGradient>
    <linearGradient id="cvKM09Threep" x1="0" y1="0" x2="1" y2="0"><stop offset="0%" stop-color="#0ea5e9"/><stop offset="55%" stop-color="#f59e0b"/><stop offset="100%" stop-color="#ef4444"/></linearGradient>
  </defs>
  <rect width="452" height="205" rx="12" fill="url(#bgKM09Threep)" stroke="#cbd5e1"/>
  <text x="40" y="18" font-family="system-ui,Segoe UI,sans-serif" font-size="11.5" font-weight="700" fill="#0f172a">KM-09 · Three people warned</text>
  <text x="436" y="18" text-anchor="end" font-family="system-ui,Segoe UI,sans-serif" font-size="9" fill="#64748b">relative likelihood</text>
  <line x1="40" y1="155" x2="436" y2="155" stroke="#94a3b8" stroke-width="1.4"/>
  <rect x="43.3" y="155.0" width="15.4" height="0.5" rx="2" fill="rgb(30,120,179)" fill-opacity="0.40"/><rect x="65.3" y="155.0" width="15.4" height="0.5" rx="2" fill="rgb(30,120,179)" fill-opacity="0.40"/><rect x="87.3" y="155.0" width="15.4" height="0.5" rx="2" fill="rgb(30,120,179)" fill-opacity="0.40"/><rect x="109.3" y="154.9" width="15.4" height="0.5" rx="2" fill="rgb(30,120,179)" fill-opacity="0.40"/><rect x="131.3" y="154.1" width="15.4" height="0.9" rx="2" fill="rgb(31,120,179)" fill-opacity="0.40"/><rect x="153.3" y="149.9" width="15.4" height="5.1" rx="2" fill="rgb(38,123,175)" fill-opacity="0.42"/><rect x="175.3" y="134.8" width="15.4" height="20.2" rx="2" fill="rgb(64,133,162)" fill-opacity="0.49"/><rect x="197.3" y="101.4" width="15.4" height="53.6" rx="2" fill="rgb(121,156,134)" fill-opacity="0.65"/><rect x="219.3" y="58.8" width="15.4" height="96.2" rx="2" fill="rgb(194,185,97)" fill-opacity="0.85"/><rect x="241.3" y="38.0" width="15.4" height="117.0" rx="2" fill="rgb(230,200,80)" fill-opacity="0.95"/><rect x="263.3" y="58.8" width="15.4" height="96.2" rx="2" fill="rgb(194,185,97)" fill-opacity="0.85"/><rect x="285.3" y="101.4" width="15.4" height="53.6" rx="2" fill="rgb(121,156,134)" fill-opacity="0.65"/><rect x="307.3" y="134.8" width="15.4" height="20.2" rx="2" fill="rgb(64,133,162)" fill-opacity="0.49"/><rect x="329.3" y="149.9" width="15.4" height="5.1" rx="2" fill="rgb(38,123,175)" fill-opacity="0.42"/><rect x="351.3" y="154.1" width="15.4" height="0.9" rx="2" fill="rgb(31,120,179)" fill-opacity="0.40"/><rect x="373.3" y="154.9" width="15.4" height="0.5" rx="2" fill="rgb(30,120,179)" fill-opacity="0.40"/><rect x="395.3" y="155.0" width="15.4" height="0.5" rx="2" fill="rgb(30,120,179)" fill-opacity="0.40"/><rect x="417.3" y="155.0" width="15.4" height="0.5" rx="2" fill="rgb(30,120,179)" fill-opacity="0.40"/>
  <path d="M 51.0,155.0 L 73.0,155.0 L 95.0,155.0 L 117.0,154.9 L 139.0,154.1 L 161.0,149.9 L 183.0,134.8 L 205.0,101.4 L 227.0,58.8 L 249.0,38.0 L 271.0,58.8 L 293.0,101.4 L 315.0,134.8 L 337.0,149.9 L 359.0,154.1 L 381.0,154.9 L 403.0,155.0 L 425.0,155.0" fill="none" stroke="url(#cvKM09Threep)" stroke-width="2.2" stroke-linecap="round" stroke-linejoin="round"/>
  <circle cx="249.0" cy="38.0" r="3.8" fill="#f59e0b" stroke="#fff" stroke-width="1.3"/>
  <text x="249.0" y="28.0" text-anchor="middle" font-family="system-ui,Segoe UI,sans-serif" font-size="10.5" font-weight="700" fill="#b45309">SEPT 9</text>
  <line x1="51.0" y1="155" x2="51.0" y2="159" stroke="#64748b" stroke-width="1.1"/><text x="51.0" y="185" text-anchor="middle" font-family="system-ui,Segoe UI,sans-serif" font-size="9.5" font-weight="600" fill="#334155">SEPT 8</text><text x="51.0" y="196" text-anchor="middle" font-family="system-ui,Segoe UI,sans-serif" font-size="8" fill="#64748b">00-04</text><line x1="183.0" y1="155" x2="183.0" y2="159" stroke="#64748b" stroke-width="1.1"/><text x="183.0" y="185" text-anchor="middle" font-family="system-ui,Segoe UI,sans-serif" font-size="9.5" font-weight="600" fill="#334155">SEPT 9</text><text x="183.0" y="196" text-anchor="middle" font-family="system-ui,Segoe UI,sans-serif" font-size="8" fill="#64748b">00-04</text><line x1="315.0" y1="155" x2="315.0" y2="159" stroke="#64748b" stroke-width="1.1"/><text x="315.0" y="185" text-anchor="middle" font-family="system-ui,Segoe UI,sans-serif" font-size="9.5" font-weight="600" fill="#334155">SEPT 10</text><text x="315.0" y="196" text-anchor="middle" font-family="system-ui,Segoe UI,sans-serif" font-size="8" fill="#64748b">00-04</text>
  <text x="40" y="203" font-family="system-ui,Segoe UI,sans-serif" font-size="8" fill="#94a3b8">Domain: SEPT 8–10 · Same-day multi-recipient</text>
</svg>